<?xml version="1.0" standalone="no"?>
<!DOCTYPE svg PUBLIC "-//W3C//DTD SVG 20010904//EN"
 "http://www.w3.org/TR/2001/REC-SVG-20010904/DTD/svg10.dtd">
<svg version="1.0" xmlns="http://www.w3.org/2000/svg"
 width="159.000000pt" height="32.000000pt" viewBox="0 0 159.000000 32.000000"
 preserveAspectRatio="xMidYMid meet">

<g transform="translate(0.000000,32.000000) scale(0.100000,-0.100000)"
fill="#ffffff" stroke="none">
<path d="M882 310 c-24 -3 -48 -13 -53 -21 -5 -8 -9 -66 -9 -129 0 -90 4 -121
16 -139 l16 -23 352 4 c193 2 359 8 369 12 15 7 17 24 17 145 0 93 -4 141 -12
149 -13 13 -616 15 -696 2z m197 -142 l-2 -93 -9 78 c-9 72 -7 107 7 107 3 0
4 -42 4 -92z m-64 51 c12 -12 15 -19 7 -19 -8 0 -20 7 -28 15 -36 36 -104 1
-104 -52 0 -33 36 -73 66 -73 13 0 32 10 44 22 11 12 23 18 27 14 13 -13 -38
-46 -71 -46 -64 0 -102 59 -74 117 26 54 90 65 133 22z m503 -15 c12 -8 22
-26 22 -40 0 -22 -4 -24 -50 -24 -51 0 -60 -6 -38 -28 17 -17 48 -15 70 5 10
9 18 11 18 5 0 -15 -40 -42 -62 -42 -27 0 -58 37 -58 69 0 20 9 36 26 50 32
25 43 26 72 5z m-296 -11 c40 -36 12 -113 -41 -113 -58 1 -86 58 -51 103 25
31 64 36 92 10z m158 -8 c13 -33 13 -105 1 -105 -6 0 -11 23 -13 51 -2 36 -8
55 -20 63 -31 19 -53 -4 -56 -63 -4 -73 -22 -63 -22 12 l0 64 50 2 c46 1 51
-1 60 -24z"/>
<path d="M1452 188 c-21 -21 -14 -28 29 -28 33 0 40 3 37 18 -4 21 -48 28 -66
10z"/>
<path d="M1152 184 c-27 -19 -28 -55 -2 -79 17 -15 24 -16 45 -7 34 16 38 66
7 90 -20 15 -23 15 -50 -4z"/>
<path d="M35 225 c-51 -50 -17 -145 53 -145 29 0 82 33 82 51 0 12 -37 12 -45
-1 -9 -14 -48 -13 -63 2 -15 15 -15 51 0 66 15 15 58 16 58 2 0 -5 11 -10 25
-10 32 0 32 13 -1 39 -36 28 -79 27 -109 -4z"/>
<path d="M215 196 c-28 -28 -32 -62 -10 -93 12 -18 25 -21 70 -21 l55 1 0 63
0 63 -33 -1 c-19 -1 -39 2 -45 6 -7 4 -23 -4 -37 -18z m70 -37 c5 -14 1 -27
-9 -37 -15 -15 -17 -15 -32 0 -20 20 -10 58 16 58 10 0 22 -10 25 -21z"/>
<path d="M691 203 c-28 -22 -31 -75 -7 -102 13 -15 31 -20 72 -20 l54 0 0 65
0 65 -32 -2 c-18 -1 -40 1 -49 5 -9 4 -25 -1 -38 -11z m67 -52 c4 -26 -13 -42
-35 -34 -14 5 -18 45 -6 57 14 14 38 0 41 -23z"/>
<path d="M360 144 c0 -57 2 -64 20 -64 16 0 20 7 20 38 0 45 13 67 34 59 11
-5 16 -19 16 -52 0 -38 3 -45 20 -45 18 0 20 7 20 54 0 31 -5 58 -13 64 -7 6
-36 11 -65 10 l-52 0 0 -64z"/>
<path d="M533 148 c19 -53 26 -63 48 -66 23 -3 28 3 47 56 27 72 27 72 2 72
-14 0 -22 -11 -31 -40 -14 -46 -24 -44 -33 5 -6 29 -11 35 -31 35 l-24 0 22
-62z"/>
</g>
</svg>
