<svg xmlns="http://www.w3.org/2000/svg" xml:space="preserve" data-id="lg_UrcsdKEhGxFZCHa4YI" data-version="1" viewBox="660.5 -0.5 679 307"><g data-padding="20"><g transform="translate(10 4.513)scale(.9705)"><path fill="#fff" d="M802.888.106C737.752 4.711 685.715 56.748 681.11 121.884c-.36 5.083 3.652 9.41 8.748 9.41h113.673a8.77 8.77 0 0 0 8.77-8.77V8.854c0-5.096-4.327-9.106-9.41-8.748Zm165.648 122.556C963.931 57.526 911.894 5.49 846.758.884c-5.083-.36-9.41 3.652-9.41 8.748v113.673a8.77 8.77 0 0 0 8.77 8.77h113.67c5.096 0 9.106-4.327 8.748-9.41Zm-14.508 29.024c-65.136 4.605-117.173 56.642-121.778 121.778-.36 5.083 3.652 9.41 8.748 9.41h113.673a8.77 8.77 0 0 0 8.77-8.77v-113.67c0-5.096-4.327-9.106-9.41-8.748Zm-272.916 13.718c4.605 65.136 56.642 117.173 121.778 121.778 5.083.36 9.41-3.652 9.41-8.748V164.761a8.77 8.77 0 0 0-8.77-8.77H689.861c-5.096 0-9.106 4.327-8.748 9.41Z"></path><rect width="359" height="220.995" x="437.684" y="-361.829" fill="none" rx="0" ry="0" transform="translate(551.24 446.75)"></rect><path fill="#fff" d="M1033.684 181.188q-9.56 0-17-3.26-7.45-3.25-12.61-8.96-5.16-5.7-7.82-13.04-2.66-7.33-2.66-15.59 0-9.02 2.98-16.51 2.99-7.5 8.43-12.99 5.43-5.48 12.92-8.53 7.5-3.04 16.52-3.04 5.87 0 10.43 1.2 4.56 1.19 7.5 2.66 2.93 1.47 3.69 2.34l-5.32 10.86q-2.94-2.61-7.23-4.24t-10.05-1.63q-7.5 0-13.53 3.7-6.03 3.69-9.56 10.43-3.53 6.73-3.53 15.97 0 8.15 3.04 14.83 3.05 6.68 8.97 10.7t14.39 4.02q4.68 0 9.19-1.25 4.5-1.25 9.28-4.18l3.59 10.32q-1.41 1.31-4.78 2.77-3.37 1.47-7.77 2.45-4.4.97-9.07.97m24.01-.76 38.25-79.96h1.19l38.46 79.96h-14.01l-6.85-15.64h-36.61l-6.85 15.64Zm39.01-56.82h-.22l-4.78 10.86-8.69 19.34h26.94l-8.58-19.23Zm105.81 56.82h-1.63l-46.72-51.71.33 8.69v43.02h-12.17v-79.96h1.52l46.94 52.37-.44-9.13v-43.13h12.17Zm45.32 0h-1.63l-36.94-79.85h13.8l23.9 54.86 24.01-54.86h13.69Zm33.35 0 38.25-79.96h1.19l38.47 79.96h-14.02l-6.84-15.64h-36.62l-6.84 15.64Zm39.01-56.82h-.22l-4.78 10.86-8.69 19.34h26.95l-8.59-19.23Zm-286.51 155.8q-9.56 0-17-3.26-7.45-3.25-12.61-8.96-5.16-5.7-7.82-13.04-2.66-7.33-2.66-15.59 0-9.02 2.98-16.51 2.99-7.5 8.43-12.99 5.43-5.48 12.92-8.53 7.5-3.04 16.52-3.04 5.87 0 10.43 1.2 4.56 1.19 7.5 2.66 2.93 1.47 3.69 2.34l-5.32 10.86q-2.94-2.61-7.23-4.24t-10.05-1.63q-7.5 0-13.53 3.7-6.03 3.69-9.56 10.43-3.53 6.73-3.53 15.97 0 8.15 3.04 14.83 3.05 6.68 8.97 10.7t14.39 4.02q4.68 0 9.19-1.25 4.5-1.25 9.28-4.18l3.59 10.32q-1.41 1.31-4.78 2.77-3.37 1.47-7.77 2.45-4.4.97-9.07.97m69.42-.76h-35.21v-79.85h12.28v68.99h22.93Zm48.46 1.09q-8.14 0-15.37-2.82-7.22-2.83-12.77-8.21-5.54-5.38-8.74-12.98-3.21-7.61-3.21-17.17 0-9.67 3.21-17.27 3.2-7.61 8.8-12.93 5.59-5.33 12.82-8.1 7.22-2.77 15.26-2.77t15.27 2.77 12.82 8.1q5.6 5.32 8.8 12.93 3.21 7.6 3.21 17.27 0 9.56-3.21 17.17-3.2 7.6-8.74 12.98-5.55 5.38-12.77 8.21-7.23 2.82-15.38 2.82m0-10.97q7.39 0 13.59-3.48 6.19-3.48 9.88-10.16 3.7-6.68 3.7-16.46 0-9.89-3.7-16.57-3.69-6.68-9.83-10.1-6.14-3.43-13.64-3.43-7.49 0-13.63 3.43-6.14 3.42-9.83 10.1-3.7 6.68-3.7 16.57 0 9.78 3.8 16.46 3.81 6.68 10 10.16t13.36 3.48m113.87 9.88h-1.63l-46.72-51.71.33 8.69v43.02h-12.17v-79.96h1.52l46.94 52.37-.44-9.13v-43.13h12.17Zm55.4 0h-38.57v-79.85h34.99v10.64h-22.93v22.06h18.47v10.86h-18.47v25.54h26.51Z"></path></g><path fill="transparent" stroke="transparent" d="M661 0h678v306H661z"></path></g></svg>